# xmcd
#
# Track frame offsets:
#	150
#	15825
#	49650
#	81300
#	117600
#	140025
#	162750
#	183150
#	208800
#	232425
#	261600
#	287250
#	302625
#
# Disc length: 4286
#
# Revision: 1
# Processed by: cddbd v1.5.1PL0 Copyright (c) Steve Scherf et al.
# Submitted via: CDex 1.50
# Normalized: r0:DSETVAR1,TDELIM( - )
#
DISCID=bc10bc0d
DTITLE=Various Artist - The Greatest Swing Collection (Includes Original Artists)
DYEAR=1900
DGENRE=English
TTITLE0=Cosmic Communications - The Hustle
TTITLE1=Miguel Brown - Close To Perfection
TTITLE2=Rico - Mix Back In Time Medley
TTITLE3=Anita Ward - Ring My Bell
TTITLE4=Marsha Raven - Catch Me
TTITLE5=Rico - K-Gee
TTITLE6=Vhoyage - Souvenir '94
TTITLE7=Azoto - Soft Emotion
TTITLE8=Gloria Gaynor - How High The Moon
TTITLE9=Evelyn Thomas - High Energy
TTITLE10=Chuck Jackson - All Over The World
TTITLE11=Gloria Gaynor - I Am  What I Am
TTITLE12=Montego Bay - Same Old Sound
EXTD=
EXTT0=
EXTT1=
EXTT2=
EXTT3=
EXTT4=
EXTT5=
EXTT6=
EXTT7=
EXTT8=
EXTT9=
EXTT10=
EXTT11=
EXTT12=
PLAYORDER=
